HIERARCHY
ROOT Hips
{
  OFFSET -38.291 145.818 224.336
  CHANNELS 6 Xposition Yposition Zposition Zrotation Xrotation Yrotation
  JOINT abdomen
  {
    OFFSET -0.204096 -0.0793556 0
    CHANNELS 6 Xposition Yposition Zposition Zrotation Xrotation Yrotation
    JOINT Chest
    {
      OFFSET 15.39 -0.0462666 0.769468
      CHANNELS 6 Xposition Yposition Zposition Zrotation Xrotation Yrotation
      JOINT Neck
      {
        OFFSET 69.6752 -0.00800823 5.8136e-005
        CHANNELS 6 Xposition Yposition Zposition Zrotation Xrotation Yrotation
        JOINT Head
        {
          OFFSET 10.0493 0 0
          CHANNELS 6 Xposition Yposition Zposition Zrotation Xrotation Yrotation
          End Site
          {
            OFFSET 0 0 0
          }
        }
        JOINT LeftCollar
        {
          OFFSET 1.93787e-005 0.00799854 4.68965
          CHANNELS 6 Xposition Yposition Zposition Zrotation Xrotation Yrotation
          JOINT LeftShoulder
          {
            OFFSET 17.4188 1.93787e-005 0
            CHANNELS 6 Xposition Yposition Zposition Zrotation Xrotation Yrotation
            JOINT LeftElbow
            {
              OFFSET 40.1972 0 -3.87573e-005
              CHANNELS 6 Xposition Yposition Zposition Zrotation Xrotation Yrotation
              JOINT LeftWrist
              {
                OFFSET 40.1972 0 0
                CHANNELS 6 Xposition Yposition Zposition Zrotation Xrotation Yrotation
                End Site
                {
                  OFFSET 0 0 0
                }
              }
            }
          }
        }
        JOINT RightCollar
        {
          OFFSET 0 0.00802276 -4.68969
          CHANNELS 6 Xposition Yposition Zposition Zrotation Xrotation Yrotation
          JOINT RightShoulder
          {
            OFFSET 17.4188 0 1.93787e-005
            CHANNELS 6 Xposition Yposition Zposition Zrotation Xrotation Yrotation
            JOINT RightElbow
            {
              OFFSET 40.1973 0 -1.93787e-005
              CHANNELS 6 Xposition Yposition Zposition Zrotation Xrotation Yrotation
              JOINT RightWrist
              {
                OFFSET 40.1972 0 1.93787e-005
                CHANNELS 6 Xposition Yposition Zposition Zrotation Xrotation Yrotation
                End Site
                {
                  OFFSET 0 0 0
                }
              }
            }
          }
        }
      }
      JOINT RightHip
      {
        OFFSET -14.2451 1.26822 -13.3478
        CHANNELS 6 Xposition Yposition Zposition Zrotation Xrotation Yrotation
        JOINT RightKnee
        {
          OFFSET 66.9954 0 -1.93787e-005
          CHANNELS 6 Xposition Yposition Zposition Zrotation Xrotation Yrotation
          JOINT RightAnkle
          {
            OFFSET 66.9954 -1.93787e-005 0
            CHANNELS 6 Xposition Yposition Zposition Zrotation Xrotation Yrotation
            JOINT RightToe
            {
              OFFSET 15.4089 19.8306 -1.93787e-005
              CHANNELS 6 Xposition Yposition Zposition Zrotation Xrotation Yrotation
              End Site
              {
                OFFSET 0 0 0
              }
            }
          }
        }
      }
      JOINT LeftHip
      {
        OFFSET -16.2927 2.98726 13.3167
        CHANNELS 6 Xposition Yposition Zposition Zrotation Xrotation Yrotation
        JOINT LeftKnee
        {
          OFFSET 66.9954 0 3.87573e-005
          CHANNELS 6 Xposition Yposition Zposition Zrotation Xrotation Yrotation
          JOINT LeftAnkle
          {
            OFFSET 66.9954 0 -3.87573e-005
            CHANNELS 6 Xposition Yposition Zposition Zrotation Xrotation Yrotation
            JOINT LeftToe
            {
              OFFSET 15.4089 19.8306 0
              CHANNELS 6 Xposition Yposition Zposition Zrotation Xrotation Yrotation
              End Site
              {
                OFFSET 0 0 0
              }
            }
          }
        }
      }
    }
  }
}
MOTION
Frames:	8
Frame Time:	0.0333333
-344.406 137.966 537.241 -94.4611 -62.6033 -87.2677 3.56894 3.0859 -1.80478e-014 -89.9999 -3.50835e-015 -90 15.404 -0.0523563 -0.0246884 -5.37683 18.4387 3.837 69.6752 -0.00804214 -7.21911e-014 -2.13443e-007 8.73784e-007 -2.13443e-007 10.0493 1.93787e-005 3.87573e-005 9.65443 42.5986 -18.2497 0 0.00798401 4.68971 179.954 -9.8415 -77.4011 17.4188 -3.87573e-005 9.68933e-006 -4.39746 -27.334 23.2362 40.1972 -1.93787e-005 1.93787e-005 -21.797 3.18055e-015 -2.56132e-006 40.1972 1.93787e-005 -1.93787e-005 101.035 -87.3862 105.929 -1.93787e-005 0.00804214 -4.68968 179.954 22.6498 77.6321 17.4188 4.3602e-005 0 5.87596 20.4775 -22.0925 40.1973 1.93787e-005 0 -0.135619 -3.41509e-006 -5.12264e-006 40.1972 -1.93787e-005 -7.21911e-014 89.2605 87.9259 -107.019 -14.4871 -5.55013 -13.2468 -26.5587 -54.6076 126.914 66.9953 7.21911e-014 -3.87573e-005 -0.111906 4.26887e-007 -3.41509e-006 66.9954 -7.21911e-014 3.87573e-005 -6.67539 0.260804 -2.55389 15.4089 19.8306 -7.21911e-014 90 1.70755e-006 -4.26887e-007 -16.1884 2.92589 12.1186 -42.2718 49.4596 -129.638 66.9954 -7.21911e-014 4.84467e-006 -0.113892 -8.53774e-007 -2.56132e-006 66.9953 -3.87573e-005 4.3602e-005 -25.6713 0.841783 -1.83199 15.4089 19.8306 7.267e-006 90 -1.70755e-006 1.12058e-006 
-344.823 138.042 528.978 -93.8357 -59.3161 -86.8737 3.2882 2.67542 0 -89.9993 -4.34519e-007 -90.102 15.4044 -0.0527075 -0.0441833 -4.8538 17.5814 3.39103 69.6752 -0.00796463 0 5.96354e-016 1.80093e-007 3.97569e-016 10.0493 -1.93787e-005 3.87573e-005 9.43589 38.0714 -17.0628 1.93787e-005 0.00796463 4.68971 179.954 -9.71679 -77.0328 17.4187 -3.87573e-005 1.93787e-005 -4.94173 -28.607 21.8015 40.1972 1.93787e-005 -9.68933e-006 -20.1366 -1.70755e-006 -1.70755e-006 40.1973 -1.93787e-005 0 99.7243 -87.5533 104.703 1.93787e-005 0.00798401 -4.68964 179.954 23.1202 78.2522 17.4188 -2.42233e-006 3.87573e-005 5.68423 21.1832 -23.2429 40.1972 3.87573e-005 7.21912e-014 -0.135595 3.41509e-006 -6.83019e-006 40.1972 3.60956e-014 -3.87573e-005 89.1383 87.9075 -106.547 -14.596 -5.22643 -13.2397 -25.3436 -53.6897 128.718 66.9954 -3.87573e-005 7.21911e-014 -0.110092 -1.70755e-006 1.70755e-006 66.9954 -3.87573e-005 -3.87573e-005 -6.82936 0.267323 -2.53101 15.4089 19.8306 0 90 -3.41509e-006 -4.77083e-015 -16.1072 2.86831 12.2619 -42.7781 49.2606 -129.371 66.9954 -3.87573e-005 1.69563e-005 -0.109216 -8.53774e-007 2.56132e-006 66.9954 3.87573e-005 -2.78568e-005 -25.5265 0.818933 -1.78887 15.4089 19.8306 3.14903e-005 90 -1.70755e-006 -6.93691e-007 
-344.864 138.117 520.975 -93.3163 -56.0313 -86.588 2.974 2.22269 -9.68933e-006 -89.9999 -3.50835e-015 -90 15.405 -0.0530297 -0.0235257 -4.23892 16.5847 2.7416 69.6752 -0.00800339 0 -2.13443e-007 -1.93433e-007 3.20165e-007 10.0493 1.93787e-005 3.87573e-005 8.92102 32.7751 -15.482 1.93787e-005 0.00798401 4.68971 179.954 -10.0001 -77.191 17.4188 -3.60956e-014 -9.68933e-006 -5.05106 -28.991 21.1854 40.1972 9.68933e-006 9.68933e-006 -19.8315 1.70755e-006 -5.12264e-006 40.1973 9.68933e-006 -3.60956e-014 99.5374 -87.5999 104.525 1.93787e-005 0.00802277 -4.68964 179.954 23.6954 79.2218 17.4188 -3.87573e-005 0 5.75269 22.0154 -24.9019 40.1972 3.87573e-005 -3.87573e-005 -0.135605 4.26887e-006 -6.83019e-006 40.1972 -5.8136e-005 0 89.0586 87.8587 -106.097 -14.7508 -4.85848 -13.2299 -23.7407 -52.8966 130.777 66.9954 -3.87573e-005 -7.21911e-014 -0.108724 -3.84198e-006 1.70755e-006 66.9955 0 -3.87573e-005 -6.84894 0.261959 -2.45991 15.4089 19.8307 7.21911e-014 90 -5.12264e-006 4.26887e-007 -15.9793 2.79068 12.4241 -44.0107 49.5166 -128.495 66.9954 0 4.84467e-006 -0.106539 -3.18055e-015 -1.70755e-006 66.9954 -3.87573e-005 -2.42233e-005 -25.4939 0.804493 -1.75171 15.4089 19.8307 4.84467e-006 90 -2.56132e-006 9.07134e-007 
-344.624 138.199 512.941 -92.8752 -52.7494 -86.383 2.68436 1.78815 -9.68933e-006 -90.0001 -3.97569e-016 -89.8333 15.4054 -0.0533107 0.0298044 -3.65476 15.7351 1.99721 69.6752 -0.0079937 0 -2.13443e-007 2.91817e-006 7.95139e-016 10.0493 9.68933e-006 -7.21911e-014 7.71764 27.6129 -13.6667 -3.60956e-014 0.0079937 4.68971 179.954 -10.5333 -78.0229 17.4188 -1.93787e-005 -2.9068e-005 -4.34138 -28.0829 21.8209 40.1972 2.9068e-005 9.68933e-006 -21.4516 3.41509e-006 8.53774e-007 40.1972 -2.9068e-005 -3.87573e-005 101.035 -87.4927 105.926 -1.93787e-005 0.00801308 -4.68968 179.954 24.3445 80.2909 17.4188 -9.68933e-006 0 6.11016 22.8232 -26.6978 40.1972 3.87573e-005 -3.87573e-005 -0.135612 -8.53774e-007 -3.41509e-006 40.1972 -1.93787e-005 0 89.0175 87.7949 -105.703 -14.9265 -4.5358 -13.2019 -21.9984 -52.3729 132.778 66.9954 3.87573e-005 3.87573e-005 -0.107798 -1.28066e-006 3.41509e-006 66.9954 -3.87573e-005 0 -6.76734 0.248319 -2.36311 15.409 19.8306 3.87573e-005 90 -3.41509e-006 -7.95139e-016 -15.8254 2.73163 12.5763 -45.5512 49.9563 -127.433 66.9954 3.87573e-005 1.93787e-005 -0.101575 -3.84198e-006 -8.53774e-007 66.9954 3.87573e-005 4.84467e-006 -25.5743 0.799887 -1.72613 15.409 19.8306 -9.68933e-006 90 -3.41509e-006 1.06722e-007 
-344.06 138.297 504.974 -92.4939 -49.4707 -86.2401 2.48365 1.42774 0 -90.0001 -1.78906e-015 -89.7465 15.4057 -0.0534076 0.0535626 -3.26259 15.3133 1.46418 69.6752 -0.00800339 -3.87573e-005 -2.13443e-007 -1.49077e-006 5.96354e-016 10.0493 -9.68933e-006 3.87573e-005 6.07183 22.5046 -11.8845 0 0.0079937 4.68972 179.954 -11.3142 -79.2113 17.4189 1.93787e-005 1.93787e-005 -3.80366 -26.2851 23.0541 40.1972 -9.68933e-006 -9.68933e-006 -24.0092 -3.18055e-015 -1.70755e-006 40.1973 -1.93787e-005 3.60956e-014 103.115 -87.3101 107.858 1.93787e-005 0.00800339 -4.68964 179.954 25.0363 81.2098 17.4189 3.87573e-005 1.93787e-005 6.73528 23.4585 -28.2261 40.1972 -3.87573e-005 -3.87573e-005 -0.13562 1.70755e-006 -3.41509e-006 40.1973 3.87573e-005 0 89.0018 87.7315 -105.391 -15.0528 -4.34706 -13.1464 -20.3167 -52.291 134.467 66.9954 7.21911e-014 -3.87573e-005 -0.107139 4.69575e-006 -1.70755e-006 66.9954 -7.21911e-014 -3.87573e-005 -6.61834 0.230548 -2.2624 15.4089 19.8306 0 90 -3.41509e-006 2.13443e-007 -15.7133 2.73032 12.6918 -46.7773 50.2293 -126.778 66.9954 -3.87573e-005 -1.93787e-005 -0.0912104 1.70755e-006 2.56132e-006 66.9954 -7.21912e-014 1.93787e-005 -25.7259 0.802208 -1.71123 15.4089 19.8306 1.93787e-005 90 -2.56132e-006 6.93691e-007 
-343.13 138.416 497.176 -92.1594 -46.1954 -86.146 2.45251 1.17078 0 -90 3.97569e-016 -89.8163 15.4059 -0.0533107 0.034494 -3.16765 15.5662 1.22476 69.6752 -0.00804699 3.87573e-005 -2.13443e-007 1.92266e-006 -3.97569e-016 10.0493 4.84467e-006 0 4.63089 16.6377 -10.2776 1.93787e-005 0.00801308 4.68971 179.954 -12.1916 -80.5058 17.4188 1.93787e-005 0 -3.94815 -23.952 24.4616 40.1973 9.68933e-006 0 -26.8299 0 -5.12264e-006 40.1972 3.60956e-014 9.68933e-006 105.084 -87.0953 109.665 3.87573e-005 0.00801792 -4.68971 179.954 25.7398 81.7286 17.4187 -1.93787e-005 0 7.52707 23.7631 -29.0782 40.1972 0 3.87573e-005 -0.13562 -5.12264e-006 5.12264e-006 40.1973 0 -3.87573e-005 88.9922 87.6839 -105.179 -15.1097 -4.37377 -13.0525 -18.8042 -52.8104 135.705 66.9954 -3.87573e-005 3.87573e-005 -0.106758 4.26887e-007 3.41509e-006 66.9954 0 -3.87573e-005 -6.43598 0.213055 -2.17894 15.409 19.8307 0 90 -1.70755e-006 2.13443e-007 -15.6616 2.81763 12.7567 -47.3089 50.1817 -126.862 66.9954 3.87573e-005 -1.93787e-005 -0.0783679 -3.41509e-006 -1.70755e-006 66.9954 -3.87573e-005 9.68933e-006 -25.928 0.807755 -1.70217 15.409 19.8307 -2.9068e-005 90 -2.56132e-006 7.73732e-007 
-341.792 138.55 489.646 -91.8624 -42.9237 -86.0914 2.54859 0.979863 9.68933e-006 -89.9999 -3.50835e-015 -90 15.4059 -0.0531363 0.00391449 -3.26415 16.3165 1.11078 69.6752 -0.00800823 0 1.98785e-016 1.49577e-006 -0 10.0493 9.68933e-006 -3.87573e-005 3.38426 10.1992 -8.84321 -3.60956e-014 0.00799854 4.68964 179.954 -13.014 -81.6559 17.4188 -1.93787e-005 9.68933e-006 -4.79998 -21.6963 25.6604 40.1972 -1.93787e-005 1.93787e-005 -29.2394 1.70755e-006 -6.83019e-006 40.1972 -1.93787e-005 -9.68933e-006 106.523 -86.8945 110.963 -3.60956e-014 0.00805668 -4.68975 179.954 26.5268 81.6281 17.4189 -1.93787e-005 3.60956e-014 7.97009 23.6515 -28.9853 40.1972 0 -7.21911e-014 -0.135621 1.70755e-006 1.98785e-015 40.1973 7.21911e-014 0 88.9864 87.6588 -105.119 -15.1361 -4.55644 -12.9275 -17.5119 -53.7016 136.635 66.9954 -3.87573e-005 0 -0.106589 4.26887e-007 -3.41509e-006 66.9954 -3.87573e-005 -3.87573e-005 -6.25479 0.200164 -2.13316 15.4089 19.8307 3.87573e-005 90 -3.41509e-006 -0 -15.6348 2.97235 12.7865 -47.352 49.9203 -127.462 66.9954 0 1.93787e-005 -0.0659011 -4.26887e-007 -2.56132e-006 66.9954 0 7.21911e-014 -26.1604 0.812994 -1.694 15.4089 19.8306 -1.93787e-005 90 -2.56132e-006 -1.06722e-007 
-340.003 138.686 482.485 -91.5959 -39.6556 -86.0692 2.653 0.808013 1.80478e-014 -89.9999 -3.50835e-015 -90 15.4058 -0.0529134 -0.0337576 -3.38499 17.2155 1.04712 69.6752 -0.00803488 7.75146e-005 2.0818e-015 -2.23532e-006 5.33608e-008 10.0493 3.14903e-005 0 2.22351 3.54234 -7.56661 1.93787e-005 0.00799128 4.6896 179.954 -13.6301 -82.4113 17.4188 5.41434e-014 -3.87573e-005 -6.10956 -20.2091 26.3597 40.1973 1.4534e-005 9.68933e-006 -30.5634 -1.70755e-006 8.53774e-007 40.1973 0 1.93787e-005 107.179 -86.7556 111.54 0 0.00803003 -4.68968 179.954 27.4064 81.0603 17.4188 1.93787e-005 -1.93787e-005 7.91831 23.2593 -28.2402 40.1972 -3.87573e-005 -3.87573e-005 -0.135624 3.41509e-006 -3.41509e-006 40.1973 0 -7.21912e-014 88.9919 87.6456 -105.2 -15.1508 -4.77408 -12.7919 -16.5792 -54.5657 137.402 66.9954 -7.75147e-005 3.87573e-005 -0.106539 -3.41509e-006 5.12264e-006 66.9954 -3.87573e-005 -3.87573e-005 -6.10964 0.195993 -2.14492 15.409 19.8306 -3.87573e-005 90 -1.70755e-006 1.06722e-007 -15.6186 3.15722 12.8014 -47.3473 49.6626 -128.167 66.9954 0 7.21911e-014 -0.0568033 7.68396e-006 8.53774e-007 66.9954 -3.87573e-005 1.93787e-005 -26.4021 0.814797 -1.68191 15.4089 19.8306 -5.8136e-005 90 -8.53774e-007 1.06722e-006 
